<svg xmlns="http://www.w3.org/2000/svg" viewBox="0 0 112 112" enable-background="new 0 0 112 112"><ellipse cx="56" cy="55.874" rx="55.5" ry="55.874" fill="#D4D2D2"/><path d="M94.364 15.519l-72.598 84.315c9.432 7.456 21.312 11.914 34.234 11.914 30.652 0 55.5-25.016 55.5-55.874 0-15.87-6.583-30.183-17.136-40.355z" fill="#ccc"/><g fill="#fff"><path d="M62.5 71.945c-.899 0-1.625.712-1.625 1.623v3.182c0 .897.72 1.623 1.625 1.623.899 0 1.625-.712 1.625-1.623v-3.182c0-.895-.72-1.623-1.625-1.623zM56 68.731c-.899 0-1.625.712-1.625 1.623v3.182c0 .897.722 1.623 1.625 1.623.899 0 1.625-.712 1.625-1.623v-3.182c0-.896-.72-1.623-1.625-1.623zM49.5 71.945c-.899 0-1.625.712-1.625 1.623v3.182c0 .897.722 1.623 1.625 1.623.899 0 1.625-.712 1.625-1.623v-3.182c0-.895-.722-1.623-1.625-1.623zM74.827 46.572c-1.505-3.955-5.366-6.769-9.89-6.769-1.042 0-2.048.149-3 .427-2.576-4.116-7.183-6.856-12.437-6.856-7.969 0-14.453 6.305-14.622 14.148-2.917 1.671-4.878 4.79-4.878 8.353 0 5.323 4.366 9.643 9.75 9.643h32.5c5.382 0 9.75-4.328 9.75-9.643 0-4.444-3.039-8.186-7.173-9.303zM69 68.731c-.899 0-1.625.712-1.625 1.623v3.182c0 .897.72 1.623 1.625 1.623.899 0 1.625-.712 1.625-1.623v-3.182c0-.896-.72-1.623-1.625-1.623zM43 68.731c-.899 0-1.625.712-1.625 1.623v3.182c0 .897.721 1.623 1.625 1.623.899 0 1.625-.712 1.625-1.623v-3.182c0-.896-.722-1.623-1.625-1.623z"/></g></svg>