<?xml version="1.0"?>
<!--Icons from directory ""-->
<svg xmlns="http://www.w3.org/2000/svg" width="80" height="140" viewBox="0 0 80 140"><svg xmlns:xlink="http://www.w3.org/1999/xlink" id="icons_login-flag-fr" xml:space="preserve" viewBox="0 0 40 40" height="20" width="20" version="1.1" y="0" x="0px" enable-background="new 0 0 40 40"><g id="icons_login-flag-fr-FR">	<circle r="20" cy="20" stroke="#fff" cx="20" stroke-miterlimit="10" stroke-width="2" fill="#fff"/>	<circle cy="20" cx="20" r="19.5" fill="#fff"/>	<path d="m39.5 20c0-8.4-5.4-15.6-12.8-18.3v36.6c7.4-2.7 12.8-9.9 12.8-18.3z" fill="#ED2939"/>	<path d="m0.5 20c0 8.4 5.4 15.6 12.8 18.3v-36.6c-7.4 2.7-12.8 9.9-12.8 18.3z" fill="#012495"/>	<path d="m20 0.5c-2.3 0-4.6 0.4-6.7 1.2v36.6c2.1 0.8 4.3 1.2 6.7 1.2s4.6-0.4 6.7-1.2v-36.6c-2.1-0.8-4.4-1.2-6.7-1.2z" fill="#fff"/></g></svg><svg xmlns:xlink="http://www.w3.org/1999/xlink" id="icons_login-flag-nl" xml:space="preserve" viewBox="0 0 40 40" height="40" width="40" version="1.1" y="20" x="0px" enable-background="new 0 0 40 40"><g id="icons_login-flag-nl-NL">	<circle r="20" cy="20" stroke="#fff" cx="20" stroke-miterlimit="10" stroke-width="2" fill="#fff"/>	<circle cy="20" cx="20" r="19.5" fill="#fff"/>	<path d="m20 0.5c-8.4 0-15.6 5.4-18.3 12.8h36.6c-2.7-7.4-9.9-12.8-18.3-12.8z" fill="#AE1C28"/>	<path d="m20 39.5c8.4 0 15.6-5.4 18.3-12.8h-36.6c2.7 7.4 9.9 12.8 18.3 12.8z" fill="#21468B"/>	<path d="m0.5 20c0 2.3 0.4 4.6 1.2 6.7h36.6c0.8-2.1 1.2-4.3 1.2-6.7s-0.4-4.6-1.2-6.7h-36.6c-0.8 2.1-1.2 4.4-1.2 6.7z" fill="#fff"/></g></svg><svg xmlns:xlink="http://www.w3.org/1999/xlink" id="icons_login-flag-uk" xml:space="preserve" viewBox="0 0 40 40" height="80" width="80" version="1.1" y="60" x="0px" enable-background="new 0 0 40 40"><g id="icons_login-flag-uk-UK">	<circle cy="20" cx="20" r="20" fill="#fff"/>	<circle r="18.9" cy="20" stroke="#fff" cx="20" stroke-miterlimit="10" stroke-width="2" fill="#f00"/><g stroke="#fff" stroke-miterlimit="10" fill="#12145B">	<path d="m23.5 17.6l12.7-8.3c-2.9-4.3-7.5-7.4-12.9-8.3v16.7h0.2z"/>	<path d="m23.3 39.2c4.9-0.8 9.1-3.4 12.1-7.2l-12.1-7.8v15z"/>	<path d="m4.9 32.1c2.9 3.7 7.1 6.3 11.9 7.1v-14.9l-11.9 7.8z"/>	<path d="m1.1 24c0.5 2.3 1.4 4.5 2.7 6.5l10-6.5h-12.7z"/>	<path d="m16.8 17.6v-16.6c-5.4 0.9-10 4-12.9 8.4l12.9 8.2z"/>	<path d="m27.1 17.6h12.2c-0.3-2.4-1-4.6-2.1-6.6l-10.1 6.6z"/>	<path d="m2.9 11c-1.1 2-1.8 4.3-2.1 6.7h12.4l-10.3-6.7z"/>	<path d="m36.4 30.5c1.2-1.9 2.1-4.1 2.6-6.4h-12.4l9.8 6.4z"/>	</g><path stroke="#fff" stroke-miterlimit="10" d="m37.1 11.1c-0.3-0.6-0.6-1.1-1-1.6l-12.6 8.1h-0.3v-16.4c-1-0.2-2.1-0.3-3.2-0.3s-2.2 0.1-3.3 0.3v16.4h-0.1l-12.6-8.2c-0.4 0.5-0.7 1.1-1 1.6l10.2 6.6h-12.3c-0.1 0.8-0.2 1.6-0.2 2.4 0 1.3 0.1 2.7 0.4 3.9h12.5l-9.9 6.4c0.3 0.5 0.7 1 1.1 1.5l11.9-7.6v14.6c1.1 0.2 2.2 0.3 3.3 0.3s2.1-0.1 3.2-0.3v-14.8l12 7.7c0.4-0.5 0.8-1 1.1-1.5l-9.8-6.3h12.4c0.3-1.3 0.4-2.6 0.4-3.9 0-0.8-0.1-1.6-0.2-2.4h-12.2l10.2-6.5z" fill="#f00"/></g></svg></svg>
