<?xml version="1.0" encoding="utf-8"?>
<!-- Generated by IcoMoon.io -->
<!DOCTYPE svg PUBLIC "-//W3C//DTD SVG 1.1//EN" "http://www.w3.org/Graphics/SVG/1.1/DTD/svg11.dtd">
<svg version="1.1" xmlns="http://www.w3.org/2000/svg" xmlns:xlink="http://www.w3.org/1999/xlink" width="473" height="16" viewBox="0 0 473 16">
<svg id="icon-ex-icon-arrow-down" width="16" height="16" viewBox="0 0 16 16" x="0" y="0">
<path fill="#000000" d="M9 11.1l-1 0.9-8-7.1 1.1-0.9 6.9 6.1 6.9-6.1 1.1 0.9z"></path>
</svg>
<svg id="icon-ex-icon-arrow-left" width="16" height="16" viewBox="0 0 16 16" x="32" y="0">
<path fill="#000000" d="M11.1 0l0.9 1.1-6.1 6.9 6.1 6.9-0.9 1.1-7.1-8 0.9-1z"></path>
</svg>
<svg id="icon-ex-icon-arrow-left-disabled" width="8" height="16" viewBox="0 0 8 16" x="64" y="0">
<path fill="#000000" d="M8 1.4l-3.2 3.6-2.6 3 5.8 6.6-1.2 1.4-5.8-6.6-1-1.4 1.4-1.6 2.4-2.8 3-3.6 1.2 1.4z"></path>
</svg>
<svg id="icon-ex-icon-arrow-right" width="16" height="16" viewBox="0 0 16 16" x="96" y="0">
<path fill="#000000" d="M11.1 7l0.9 1-7.1 8-0.9-1.1 6.1-6.9-6.1-6.9 0.9-1.1z"></path>
</svg>
<svg id="icon-ex-icon-arrow-right-disabled" width="8" height="16" viewBox="0 0 8 16" x="128" y="0">
<path fill="#000000" d="M1.2 0l3 3.6 2.4 2.8 1.4 1.6-1.2 1.4-5.6 6.6-1.2-1.4 5.8-6.6-2.8-3-3-3.6 1.2-1.4z"></path>
</svg>
<svg id="icon-ex-icon-arrow-up" width="16" height="16" viewBox="0 0 16 16" x="160" y="0">
<path fill="#000000" d="M16 11.1l-1.1 0.9-6.9-6.1-6.9 6.1-1.1-0.9 8-7.1 1 0.9z"></path>
</svg>
<svg id="icon-ex-icon-bullet" width="16" height="16" viewBox="0 0 16 16" x="192" y="0">
<path fill="#000000" d="M16 8c0 4.418-3.582 8-8 8s-8-3.582-8-8c0-4.418 3.582-8 8-8s8 3.582 8 8z"></path>
</svg>
<svg id="icon-ex-icon-checkbox-active" width="16" height="16" viewBox="0 0 16 16" x="224" y="0">
<path fill="#000000" d="M12.6 5.867l-5.8 5.8c-0.067 0.067-0.133 0.067-0.2 0l-3.267-3.267c-0.067-0.067-0.067-0.133 0-0.2l0.8-0.8c0.067-0.067 0.133-0.067 0.2 0l2.4 2.4 4.867-4.867c0.067-0.067 0.133-0.067 0.2 0l0.8 0.8c0.067 0 0.067 0.067 0 0.133z"></path>
</svg>
<svg id="icon-ex-icon-checkbox-disabled" width="16" height="16" viewBox="0 0 16 16" x="256" y="0">
<path fill="#000000" d="M12.6 5.867l-5.8 5.8c-0.067 0.067-0.133 0.067-0.2 0l-3.267-3.267c-0.067-0.067-0.067-0.133 0-0.2l0.8-0.8c0.067-0.067 0.133-0.067 0.2 0l2.4 2.4 4.867-4.867c0.067-0.067 0.133-0.067 0.2 0l0.8 0.8c0.067 0 0.067 0.067 0 0.133z"></path>
</svg>
<svg id="icon-ex-icon-checkmark-black" width="21" height="16" viewBox="0 0 21 16" x="288" y="0">
<path fill="#000000" d="M20.707 1.899l-0.626-0.658v-0.002l-1.086-1.142c-0.123-0.13-0.323-0.13-0.446 0l-10.866 11.424-5.358-5.634c-0.123-0.13-0.323-0.13-0.446 0l-1.786 1.877c-0.123 0.13-0.123 0.341 0 0.469l7.293 7.669c0.123 0.13 0.323 0.13 0.446 0l12.877-13.534c0.122-0.13 0.122-0.341-0.002-0.469z"></path>
</svg>
<svg id="icon-ex-icon-hamburger" width="16" height="16" viewBox="0 0 16 16" x="320" y="0">
<path fill="#000000" d="M0 2h16v2h-16zM0 7h16v2h-16zM0 12h16v2h-16z"></path>
</svg>
<svg id="icon-ex-icon-home" width="16" height="16" viewBox="0 0 16 16" x="352" y="0">
<path fill="#000000" d="M15.9 7.5l-7.7-7.4c-0.1-0.1-0.3-0.1-0.4 0l-7.7 7.5c-0.1 0-0.1 0.2 0 0.3s0.1 0.1 0.2 0.1h1.7v8h4v-6h4v6h4v-8h1.7c0.1 0 0.1 0 0.2-0.1 0.1-0.2 0.1-0.3 0-0.4z"></path>
</svg>
<svg id="icon-ex-icon-magnifier" width="16" height="16" viewBox="0 0 16 16" x="384" y="0">
<path fill="#000000" d="M11.8 10.2c1.8-2.5 1.6-6.1-0.7-8.3-2.5-2.5-6.6-2.5-9.2 0-2.5 2.5-2.5 6.6 0 9.2 2.3 2.3 5.8 2.5 8.3 0.7l4.2 4.2 1.6-1.6-4.2-4.2zM9.6 9.6c-1.8 1.8-4.6 1.8-6.3 0s-1.8-4.6 0-6.3 4.6-1.8 6.3 0 1.8 4.6 0 6.3z"></path>
</svg>
<svg id="icon-ex-icon-show-password" width="25" height="16" viewBox="0 0 25 16" x="416" y="0">
<path fill="#000000" d="M17.898 10.238c0 3.057-2.418 5.535-5.4 5.535s-5.4-2.478-5.4-5.535c0-3.057 2.418-5.535 5.4-5.535s5.4 2.478 5.4 5.535z"></path>
<path fill="#000000" d="M1.988 10.238c0.998-4.779 5.324-8.375 10.51-8.375s9.511 3.596 10.51 8.375h1.69c-1.022-5.686-6.089-10.010-12.2-10.010s-11.178 4.324-12.2 10.010h1.69z"></path>
</svg>
</svg>
